<svg width="60" height="20" fill="none" xmlns="http://www.w3.org/2000/svg"><path d="M54 7.565l.485 1.145.235.555.6.05 1.235.105-.94.815-.455.395.135.59.28 1.205-1.06-.64-.515-.32-.515.31-1.06.64.28-1.205.135-.59-.455-.395-.94-.815 1.235-.105.6-.05.235-.555L54 7.565zM54 5l-1.405 3.315L49 8.62l2.73 2.365-.82 3.515L54 12.635l3.09 1.865-.82-3.515L59 8.62l-3.595-.305L54 5zm-12 7.635l3.09 1.865-.82-3.515L47 8.62l-3.595-.305L42 5l-1.405 3.315L37 8.62l2.73 2.365-.82 3.515L42 12.635zm-12 0l3.09 1.865-.82-3.515L35 8.62l-3.595-.305L30 5l-1.405 3.315L25 8.62l2.73 2.365-.82 3.515L30 12.635zm-12 0l3.09 1.865-.82-3.515L23 8.62l-3.595-.305L18 5l-1.405 3.315L13 8.62l2.73 2.365-.82 3.515L18 12.635zm-12 0L9.09 14.5l-.82-3.515L11 8.62l-3.595-.305L6 5 4.595 8.315 1 8.62l2.73 2.365-.82 3.515L6 12.635z" fill="#333"/></svg>