<svg width="64" height="17" fill="none" xmlns="http://www.w3.org/2000/svg"><path d="M.977 16V.295h3.33V13.25h6.37V16h-9.7zM28.55 8.126c0 1.21-.15 2.313-.451 3.309-.301.988-.76 1.84-1.375 2.556-.609.716-1.382 1.268-2.32 1.655-.939.38-2.049.569-3.33.569-1.283 0-2.393-.19-3.33-.57-.939-.386-1.716-.938-2.332-1.654-.608-.716-1.063-1.572-1.364-2.567-.3-.996-.451-2.102-.451-3.32 0-1.625.265-3.04.795-4.243.537-1.21 1.36-2.148 2.47-2.814 1.11-.666 2.521-1 4.233-1 1.704 0 3.104.334 4.2 1 1.103.666 1.92 1.604 2.45 2.814.536 1.21.805 2.632.805 4.265zm-11.462 0c0 1.096.136 2.041.408 2.836.28.788.713 1.396 1.3 1.826.587.423 1.346.634 2.277.634.946 0 1.712-.211 2.3-.634.586-.43 1.013-1.038 1.277-1.826.273-.795.409-1.74.409-2.836 0-1.647-.308-2.943-.924-3.889-.616-.945-1.63-1.418-3.04-1.418-.938 0-1.705.215-2.299.645-.587.422-1.02 1.031-1.3 1.826-.272.788-.408 1.733-.408 2.836zm21.559-.945h6.23v8.142c-.823.272-1.68.49-2.567.655-.888.158-1.894.237-3.019.237-1.561 0-2.886-.308-3.974-.924-1.089-.616-1.916-1.525-2.482-2.729-.566-1.203-.848-2.681-.848-4.436 0-1.647.315-3.072.945-4.275a6.664 6.664 0 012.782-2.793c1.225-.66 2.718-.989 4.48-.989.83 0 1.65.09 2.46.269.809.179 1.543.412 2.202.698L43.75 3.7a8.458 8.458 0 00-1.643-.612 7.453 7.453 0 00-1.934-.247c-.967 0-1.808.222-2.524.666-.71.444-1.26 1.067-1.655 1.869-.386.795-.58 1.733-.58 2.814 0 1.025.14 1.934.42 2.729.278.788.719 1.407 1.32 1.858.602.444 1.386.666 2.353.666.473 0 .87-.021 1.193-.064.329-.05.637-.1.923-.15V9.951h-2.975v-2.77zm25.114.945c0 1.21-.15 2.313-.451 3.309-.3.988-.76 1.84-1.375 2.556-.609.716-1.382 1.268-2.32 1.655-.939.38-2.049.569-3.33.569-1.282 0-2.392-.19-3.33-.57-.939-.386-1.716-.938-2.332-1.654-.608-.716-1.063-1.572-1.364-2.567-.3-.996-.451-2.102-.451-3.32 0-1.625.265-3.04.795-4.243.537-1.21 1.36-2.148 2.47-2.814 1.11-.666 2.521-1 4.233-1 1.704 0 3.104.334 4.2 1 1.103.666 1.92 1.604 2.45 2.814.536 1.21.805 2.632.805 4.265zm-11.462 0c0 1.096.136 2.041.408 2.836.28.788.713 1.396 1.3 1.826.587.423 1.346.634 2.277.634.946 0 1.712-.211 2.3-.634.587-.43 1.013-1.038 1.278-1.826.272-.795.408-1.74.408-2.836 0-1.647-.308-2.943-.924-3.889-.616-.945-1.63-1.418-3.04-1.418-.938 0-1.704.215-2.299.645-.587.422-1.02 1.031-1.3 1.826-.272.788-.408 1.733-.408 2.836z" fill="#000"/></svg>